<?xml version="1.0" encoding="UTF-8"?>
<svg version="1.1" viewBox="0 0 1600 1565" width="1280" height="1280" xmlns="http://www.w3.org/2000/svg">
<path transform="translate(806,372)" d="m0 0h50l26 3 29 6 32 10 23 10 22 11 17 10 14 10 13 10 14 12 27 27 11 14 11 15 11 18 8 14 12 25 8 21 8 29 4 25 3 32v28l-4 36-5 26-8 26-11 27-12 23-11 18-4 6h-2v-32l2-100-1-48-2-22-5-27-9-27-10-21-10-15-13-17-8-8v-2l-4-2-8-8-16-12-19-11-14-7-21-8-21-5-20-3-11-1h-10l-21 2-23 4-19 6-17 7-21 11-12 8-13 11-8 7-10 10-11 14-7 10-10 18-7 15-8 24-4 20-2 24v10l2 23 4 20 7 21 8 18 9 16 12 17 13 15 7 7 11 9 17 12 16 9 19 9 15 5 21 5 14 2 26 1 17-1 24-4 20-6 22-9 19-11 17-12 13-11 10-10 5-7h2v105l-2 6-10 9-13 10-20 14-19 11-19 10-19 8-27 9-22 5-23 4-19 2h-51l-26-3-34-7-30-10-18-8-22-11-21-13-14-10-13-10-13-12-8-7-8-8-9-11-9-10-11-15-10-15-12-22-12-26-1-3h-18l-7 8-5 4-4 2h-15l-8-4-5-5-5-8-1-3v-11l3-8 6-7 9-5h17l8 5 6 7 2 4 87 1 7 8 11 4h7l9-3 6-5 4-8v-13l-4-8-5-5-5-3-4-1h-9l-8 3-6 5-5 8h-79l-3-7-4-24-3-29-1-24h-136l-2 4-8 7-4 2h-17l-8-4-7-8-3-8v-10l4-10 7-7 9-4h13l10 5 6 8 2 3 213 1 6 9 11 5h11l9-4 5-4 5-10v-13l-5-10-7-5-6-2h-13l-10 5h-2l-2 4-3 5-17 1h-52l-4-1 2-12 6-24 8-24 10-23 4-8h-87l-6 9-7 6-9 4-5 1h-11l-10-3-8-6-6-8-4-9-1-5v-9l3-10 6-9 8-7 10-4h16l9 3 9 7 6 10 1 2 201 1 9 10 8 4 5 1h7l11-4 7-6 4-7 1-4v-13l-5-10-8-7-9-3h-10l-10 4-5 5-4 5-4 4h-80l1-4 12-14 7-8 18-18 11-9 16-13 15-10 22-12 21-11 29-11 25-7 31-6zm-383 137-8 5-5 6-2 6v9l5 10 6 5 6 2h7l10-5 5-6 2-6v-10l-4-8-7-6-5-2zm-73 141-6 4-3 3-2 6 1 9 6 7 3 1h10l7-6 1-3v-12l-4-6-6-3zm139 122-6 3-5 6-1 4v7l2 5 7 6 2 1h9l6-4 3-4 1-3v-10l-3-6-5-4-3-1z" fill="#04C5F3"/>
<path transform="translate(708,766)" d="m0 0 4 1 6 4v2h3l12 20 9 12 12 14 7 7 11 9 17 12 16 9 19 9 15 5 21 5 14 2 26 1 17-1 24-4 20-6 22-9 19-11 17-12 13-11 10-10 5-7h2v105l-2 6-10 9-13 10-20 14-19 11-19 10-19 8-27 9-22 5-23 4-19 2h-51l-26-3-34-7-30-10-18-8-3-4v-2l-2-1-3-2v-5l6-3 4-7 5 1 6-9 5-2 3-14-5-4-2-12-4-12-2-15-2-10 3-2-2-10-1-9 2-7h2v-2l5-2v-7l-3-6 6-4 3 1-1-3v-15l-3-9-3-12-4-11v-6z" fill="#06AEFD"/>
<path transform="translate(831,372)" d="m0 0h25l26 3 29 6 32 10 23 10 22 11 17 10 14 10 13 10 14 12 27 27 11 14 11 15 11 18 8 14 12 25 8 21 8 29 4 25 3 32v28l-4 36-5 26-8 26-11 27-12 23-11 18-4 6h-2v-32l2-100-1-48-2-22-5-27-9-27-10-21-10-15-13-17-8-8v-2l-4-2-8-8-16-12-19-11-14-7-21-8-21-5-20-3-11-1h-10l-21 2-23 4-10 2v-15h-3v-2l-4 1-2-2v-8l3-4 4-17h-3l1-13 3-9 4-5 2-13v-7l-9-18-5-4-4-2v-3l2-2z" fill="#4B5AF8"/>
<path transform="translate(852,547)" d="m0 0h28l69 1 13 2 14 4 13 6 11 7 11 10 10 15 5 11 4 15 2 11v20l-4 19-5 12-9 14-11 12-10 7-16 8-13 4-10 2-10 1-53 1-1 91-5 5h-66l-3-4-1-98h-52l-4 4-5 2h-11l-6-4-4-6-1-9 3-7 5-5 4-2h10l7 4 2 2h74l11 1 6 4 7-1 3-1 2-5-1-8-4-4-6-1-5 2-3 2h-31v-139l3-4zm38 65v56l3 1h33l13-2 8-4 7-7 4-11v-10l-4-10-4-5-10-6-8-2z" fill="#04C5F3"/>
<path transform="translate(806,372)" d="m0 0h25l-3 3h-3l1 3 6 3 4 4 3 7 5 10v7l-2 13-5 6-3 14-1 7h3l-1 9-3 9-2 3v8l5 1v2l4-1-1 17-17 6-23 11-18 11-14 12-8 7-10 10-11 14-7 10-10 18-7 15-7 21h-3l-4-5v-12l1-6v-13l2-11 5-19 2-12-4-1-7-8-4-3v-2l-5-4v-2l13-5 7-6 4-7 1-4v-13l-5-10-8-7-9-3h-10l-10 4-5 5-4 5-4 4h-80l1-4 12-14 7-8 18-18 11-9 16-13 15-10 22-12 21-11 29-11 25-7 31-6z" fill="#06AEFD"/>
<path transform="translate(831,372)" d="m0 0h25l26 3 29 6 32 10 23 10 22 11 9 5-2 1v7l-1 2 2 3 1 15 5 16v5l-5 8-7 12-3 5-5 2v3h-7l-3 1 3 6-3 1-15-6-19-5-25-4-11-1h-10l-21 2-23 4-10 2v-15h-3v-2l-4 1-2-2v-8l3-4 4-17h-3l1-13 3-9 4-5 2-13v-7l-9-18-5-4-4-2v-3l2-2z" fill="#2E7EF9"/>
<path transform="translate(912,548)" d="m0 0h37l13 2 14 4 13 6 11 7 11 10 10 15 5 11 4 15 2 11v20l-4 19-5 12-9 14-11 12-10 7-16 8-13 4-10 2-10 1h-49v-1l10-1 8-7 3-9-1-4 2-6v-9l-4-9-4-6v-7l26-2 9-3 9-8 4-11v-10l-4-10-5-5-8-5-8-2-19-2 3-4 2-8-2-4 2-10 1-4v-13l-6-13v-5z" fill="#2E7EF9"/>
<path transform="translate(1047,807)" d="m0 0h2v105l-2 6-10 9-13 10-20 14-19 11-19 10-19 8-27 9-12 3h-6l3-7h3v-3h2v-2l-8-4v-3l-3-2 2-7 6-7 2-10 1-11 1-2v-7l-3-7 4-7 4-2-1-9-3-6-12-6-5-4-3-5-2-2 27-2 24-4 20-6 22-9 19-11 17-12 13-11 10-10z" fill="#2E7EF9"/>
<path transform="translate(995,418)" d="m0 0 5 1 15 10 17 13 14 12 27 27 11 14 1 2-2 1 1 4 1 3-2 1v13l-1 10 1 18-1 9-2 19-2 4-3 1-2 7h-3l-2 2-10-16-14-18-8-8v-2l-4-2-8-8-16-12-19-11-15-8-2-4v-3l4-2h5l1-3 6-3 7-14 4-5 2-4-1-7-4-14-1-15-2-4 1-5z" fill="#3D6BFA"/>
<path transform="translate(744,696)" d="m0 0h10l7 4 2 2h74l11 1 6 4 7-1 3-1 2-5 1 4 4 8 3 8 2 59v12h-1l-1 6v9l-4 6-5 5-2 4h2l1 2 19 1v1h-66l-3-4-1-98h-52l-4 4-5 2h-11l-6-4-4-6-1-9 3-7 5-5z" fill="#04C5F3"/>
<path transform="translate(831,372)" d="m0 0h25l26 3 21 4v6l1 2v7l4 2 4 4-1 5v8l4 16-1 5-6 7 1 5 1 6-7 11-1 10h-2l1 3-1 3-6 3-2 3-6 1 6 1v1l-21 2-23 4-10 2v-15h-3v-2l-4 1-2-2v-8l3-4 4-17h-3l1-13 3-9 4-5 2-13v-7l-9-18-5-4-4-2v-3l2-2z" fill="#1A90FB"/>
<path transform="translate(847,873)" d="m0 0 13 2 14 2 16 1v2l3 1 4 6 12 7 4 2 3 6 1 9-5 2-2 6v3l2 5v7l-1 2-1 11-2 10-7 8-1 6 3 3-1 2 5 1 3 3v2h-2v3h-3l-2 8-28 5-19 2h-48v-1l12-1 7-4 7-3v-5l2-3v-8l2-7v-5h2l1-8-1-9-4-15 1-5 6-7h2l-1-6 3-4 1-8-2-13-5-6 2-6z" fill="#1A90FB"/>
<path transform="translate(868,548)" d="m0 0h44l2 3 1 7 5 10v13l-3 11 1 5 1 4-3 8-2 1 10 1v1h-34v56l19 1 1 7 5 7 3 8v9l-2 8 1 4-4 8-4 2-1 3-3 2-14 2-1 91-3 4h-21l-1-3h-2l1-4 4-6 3-1 2-5v-8l1-7h1l-1-41-1-29-6-15-1-2 1-9 2-1 3-6 3-17-2-32-1-7v-26l2-13v-13l-1-15-2-7-4-4z" fill="#06AEFD"/>
<path transform="translate(969,553)" d="m0 0 7 1 13 6 11 7 11 10 10 15 5 11 4 15 2 11v20l-4 19-5 12-9 14-11 12-10 7-16 8-8 1 2-1 1-4 4-2v-8l-1-5-2-22 2-38v-11h2l-1-6v-27l-1-10-1-20v-7l-2-6-3-1z" fill="#3D6BFA"/>
<path transform="translate(704,416)" d="m0 0h5l-1 2 4 2-2 5 1 4 4-1 1 3-2 7 2 2-1 5-6 11-1 7 3 2-2 4-7 4 1 3-2 1 2 1 1 5-5-2-7-2h-10l-10 4-5 5-4 5-4 4h-80l1-4 12-14 7-8 18-18 11-9 16-13 15-10 5-3h2l2 4 16-4h7z" fill="#04C5F3"/>
<path transform="translate(1047,807)" d="m0 0h2v105l-2 6-10 9-13 10-20 14-15 9-4-1 6-10 8-6 4-5-10-1v-2l-2-1 1-5-2-4 1-6 4-11 4-13 1-4v-7l-3-1v-4h-5l-1-3-4-3 1-2-9-2-4-6 1-2 16-8 16-10 16-12 12-11 9-10z" fill="#3C6DFA"/>
<path transform="translate(806,372)" d="m0 0h25l-3 3h-3l1 3 6 3 4 4 3 7 5 10v7l-2 13-5 6-3 14-1 7h3l-1 9-3 9-2 3v8l5 1v2l4-1-1 17-17 6-23 11-7-2-1-3 3-11 3-5-2-1 1-2-2-1 2-20 3-8 3-1 2-13 1-16 4-7 3-7 3-5 1-6-4-11-2-2-7-2-4-2-7-2v-2l-4-1-4-2-3-6 7-2z" fill="#0E9DFD"/>
<path transform="translate(825,866)" d="m0 0 11 3 10 3v3l-3 1-1 7 5 5 2 13-1 8-3 5v5h-2l-2 4h-2l-2 4 1 9 4 13v10l-2 4h-2l1 6-2 7v8l-2 4-1 4-9 4-5 3-15 1-12-1-3-2 1-3 1-8 2-3h-2v-2h-2l1-4 4-2 3-9 6-12 1-5v-7l-1-5v-11l4-9 7-11 4-7v-9l-2-10-4-5v-2l-4-1 1-3 7-1z" fill="#0E9DFD"/>
<path transform="translate(184,1082)" d="m0 0 33 1 8 2 6 5 3 5 2 15v30l-2 12-4 8-8 5-5 1-32 1-2-1v-83zm19 15v54l9-1 4-3v-46l-4-3z" fill="#FEFEFE"/>
<path transform="translate(1386,1080)" d="m0 0h9l8 2 8 5 4 5 3 10 1 9-4 1h-14l-2-6-3-8-2-2-7 1-2 2-1 4v43l1 5 9 1 3-3 1-3 1-11 1-1h18l1 5-2 12-3 8-6 6-9 3h-16l-8-3-6-5-4-9-2-12v-31l3-14 6-8 7-4z" fill="#FEFEFE"/>
<path transform="translate(830,1080)" d="m0 0h8l10 3 6 4 4 7 1 5v7l-1 1h-16l-3-9-3-3-5 1-2 3 1 7 2 4 4 2 11 7 9 8 4 10v10l-4 11-5 6-9 4h-17l-8-4-6-8-2-6v-11l1-1h15l2 7 2 5 2 2 7-1 2-4-1-6-5-6-13-9-8-9-3-7v-12l5-10 6-5z" fill="#FEFEFE"/>
<path transform="translate(347,639)" d="m0 0h13l10 5 9 12 80 1-4 3 4 1 4 3-2 3h-4l1 4h-3v2l-2 2-77 2-2 4-8 7-4 2h-17l-8-4-7-8-3-8v-10l4-10 7-7zm3 11-6 4-3 3-2 6 1 9 6 7 3 1h10l7-6 1-3v-12l-4-6-6-3z" fill="#00F0DF"/>
<path transform="translate(494,1083)" d="m0 0h33l8 2 6 4 4 7 2 9-1 12-5 10-5 4-5 2-8 1h-11l1 31-7 2h-11l-1-1-1-82zm19 14-1 4v17l1 1 9-1 4-5v-12l-4-3z" fill="#FEFEFE"/>
<path transform="translate(1009,581)" d="m0 0 5 1 7 10 5 11 4 15 2 11v20l-4 19-5 12-9 14-9 10-3-1v-3h2l-1-3 4-9v-3l-3-3-2-19-1-31 2-14 1-15 2-17 1-2z" fill="#4A5AF8"/>
<path transform="translate(420,495)" d="m0 0h16l9 3 9 7 6 10 5 6 1 5-1 2h-2v7l3 1 1 2h2v5l-1 1-8 1-6 9-7 6-9 4-5 1h-11l-10-3-8-6-6-8-4-9-1-5v-9l3-10 6-9 8-7zm3 14-8 5-5 6-2 6v9l5 10 6 5 6 2h7l10-5 5-6 2-6v-10l-4-8-7-6-5-2z" fill="#00EEE0"/>
<path transform="translate(627,1101)" d="m0 0h12l9 3 6 5 2 5 1 43 1 9-16 1-2-1-1-3-4 2-10 3-8-1-6-4-4-8v-10l4-7 6-5 19-9 2-3-1-5-1-1h-8l-1 6-4 2h-14l-1-5 5-10 5-4zm7 36-7 4-2 4 1 7 3 3 6-1 3-3 1-13z" fill="#FEFEFE"/>
<path transform="translate(353,1102)" d="m0 0h14l2 6 8-6h13l5 6 3 7v51h-18l-1-48-1-1h-5l-3 4-1 45h-17v-63z" fill="#FEFEFE"/>
<path transform="translate(1129,1102)" d="m0 0h14l1 1v5l5-3 4-3h13l6 7 2 8v49h-17l-1-1-1-46-1-2h-5l-3 4-1 45h-17v-63z" fill="#FEFEFE"/>
<path transform="translate(952,1102)" d="m0 0 16 1 1 3v47l7-1 3-3 1-46 3-1 15 1v63l-15 1-2-1v-5l-9 6-7 1-7-2-5-6-1-2-1-12v-27z" fill="#FEFEFE"/>
<path transform="translate(1091,1101)" d="m0 0h8l9 3 7 8 2 5 1 6v22l-2 10-4 7-5 4-7 2h-11l-7-2-5-4-4-8-2-10v-18l3-13 6-8 5-3zm2 13-3 4-1 6v23l2 7 5 1 3-2 1-4v-26l-2-8z" fill="#FEFEFE"/>
<path transform="translate(428,1101)" d="m0 0 12 1 6 3 6 7 2 7v18h-30l2 16 2 1h6l2-3 1-6h16l1 4-3 9-6 7-9 3h-12l-9-3-5-6-3-10v-29l4-11 6-5 4-2zm2 12-4 2-2 9 1 2 9 1 3-1v-9l-2-3z" fill="#FEFEFE"/>
<path transform="translate(574,1101)" d="m0 0 14 1 6 4 4 6 2 7v18h-29l1 13 2 4h7l2-3 1-6h16l-1 10-4 6-5 5-6 2h-14l-8-3-6-7-2-5-1-6v-25l3-10 6-7 6-3zm2 12-4 4-1 8 7 2 6-1v-8l-2-4z" fill="#FEFEFE"/>
<path transform="translate(888,1101)" d="m0 0 12 1 6 4 5 6 2 8v30l-3 9-5 6-8 3h-14l-7-3-5-5-3-9-1-7v-18l3-14 5-7 6-3zm0 13-3 4-1 9v18l2 8 2 2 5-1 3-6 1-16-1-11-3-6z" fill="#FEFEFE"/>
<path transform="translate(748,1101)" d="m0 0h8l10 3 7 8 1 9h-16l-3-7h-6l-1 1v6l8 5 9 5 6 5 3 5 1 10-3 8-5 5-5 3-4 1h-13l-8-3-6-7-1-2v-9h15l3 7 6 1 3-2v-6l-17-9-6-5-4-8v-10l5-8 8-5z" fill="#FEFEFE"/>
<path transform="translate(1314,1083)" d="m0 0h19v66h23l1 1v16h-43z" fill="#FEFEFE"/>
<path transform="translate(1263,1083)" d="m0 0h19v66h23l1 1v16h-43z" fill="#FEFEFE"/>
<path transform="translate(1199,1101)" d="m0 0 13 1 7 4 4 5 2 5v5h-15l-4-7h-6l-2 5 4 5 14 7 6 5 3 5 1 9-3 9-5 5-5 3-4 1h-13l-7-3-7-8-1-10h15l4 8 7-1 2-2v-5l-5-2-13-7-7-7-2-5v-11l3-6 7-6z" fill="#FEFEFE"/>
<path transform="translate(271,1102)" d="m0 0 16 1 4 23 1 16h2l1-10 4-27 3-3h15l-1 10-12 53-1 1h-20l-3-12-8-38-2-13z" fill="#FEFEFE"/>
<path transform="translate(935,667)" d="m0 0h4l5 11 3 16-1 17-1 8-5 5-5 2 9 1v1h-49v-1l10-1 8-7 3-9-1-4 2-6v-9l-4-9-4-6v-7z" fill="#1A90FB"/>
<path transform="translate(1011,1086)" d="m0 0h17l1 4v11l8 2v13l-8 1v18l1 18 7 2v10l-2 2h-15l-6-4-3-5-1-14v-28h-5v-13l5-2v-14z" fill="#FDFDFD"/>
<path transform="translate(912,548)" d="m0 0h37v1h-8l1 6 1 7 3 10v12l-2 14-1 10v8l-5-2-25-3 3-4 2-8-2-4 2-10 1-4v-13l-6-13v-5z" fill="#1A90FB"/>
<path transform="translate(922,1082)" d="m0 0h18v84h-18z" fill="#FEFEFE"/>
<path transform="translate(705,1082)" d="m0 0h17v84h-17z" fill="#FEFEFE"/>
<path transform="translate(695,1101)" d="m0 0 2 1v18l-1 1-8 1-2 4-1 40h-18v-64l16 1 1 6 8-6z" fill="#FEFEFE"/>
<path transform="translate(247,1102)" d="m0 0h16l1 1v63h-17l-1-1v-62z" fill="#FEFEFE"/>
<path transform="translate(1046,1102)" d="m0 0h15l1 1v63h-17v-63z" fill="#FEFEFE"/>
<path transform="translate(324,1102)" d="m0 0h15l1 1v63h-17l-1-7 1-56z" fill="#FEFEFE"/>
<path transform="translate(744,696)" d="m0 0h10l7 4 2 4h3v2l7 2 2 5-5 5-7 5-4 4-5 2h-11l-6-4-4-6-1-9 3-7 5-5z" fill="#00EFE0"/>
<path transform="translate(898,548)" d="m0 0h14l2 3 1 7 5 10v13l-3 11 1 5 1 4-3 8-3 2h-10l-5-3v-3h3l1-13 3-8h2l1-13-3-9-5-5-1-7z" fill="#0E9DFE"/>
<path transform="translate(610,631)" d="m0 0h7l8 4 4 8v8l-4 6-5 4-8 1-7-2-5-6-2-5 1-8 5-7z" fill="#04C6F3"/>
<path transform="translate(623,754)" d="m0 0 9 1 6 4 3 6v9l-4 7-6 3h-9l-6-3-4-5-1-3v-7l3-6 6-5z" fill="#04C6F3"/>
<path transform="translate(684,490)" d="m0 0 9 1 7 6 2 4v9l-4 6-4 3-3 1h-10l-7-6-2-6 1-9 5-6z" fill="#06AFFD"/>
<path transform="translate(895,669)" d="m0 0h14l1 7 5 7 3 8v9l-2 8 1 4-4 8-4 2-1 3-3 2h-10l2-4 5-9-1-5 3-7 1-3v-10l-4-10-2-7h-2v-2z" fill="#0E9DFE"/>
<path transform="translate(323,1081)" d="m0 0h10l7 1 1 3-1 10-1 1h-15l-2-1z" fill="#FEFEFE"/>
<path transform="translate(247,1081)" d="m0 0 17 1v13l-1 1h-16l-1-1v-13z" fill="#FEFEFE"/>
<path transform="translate(1045,1082)" d="m0 0h17v13l-1 1h-16z" fill="#FEFEFE"/>
<path transform="translate(702,634)" d="m0 0h2l-1 10-3 4-1-9z" fill="#06B2FB"/>
<path transform="translate(673,509)" d="m0 0 3 1 4 5 1 4-4-2-4-5z" fill="#04C6F3"/>
</svg>
